<svg id="Livello_1" data-name="Livello 1" xmlns="http://www.w3.org/2000/svg" viewBox="0 0 309 76"><defs><style>.cls-1{fill:#4285f4;}.cls-2{fill:#ea4335;}.cls-3{fill:#fbbc05;}.cls-4{fill:#34a853;}.cls-5{fill:#353535;}</style></defs><title>create</title><path class="cls-1" d="M56.53,36.51H37l-7.85,7.85h27.5Z"/><path class="cls-2" d="M37,36.51V17H29l.11,27.39Z"/><rect class="cls-3" x="8" y="36" width="21" height="8"/><rect class="cls-4" x="22.5" y="50.5" width="21" height="8" transform="translate(87.5 21.5) rotate(90)"/><path class="cls-5" d="M92.22,41.53l3.19.81a10.73,10.73,0,0,1-3.61,6,10,10,0,0,1-6.38,2.07,11.45,11.45,0,0,1-6.35-1.59,9.91,9.91,0,0,1-3.72-4.6,16.28,16.28,0,0,1-1.28-6.47,14.22,14.22,0,0,1,1.44-6.58,9.84,9.84,0,0,1,4.1-4.27,12,12,0,0,1,5.86-1.46,9.91,9.91,0,0,1,6.09,1.85A9.58,9.58,0,0,1,95,32.47l-3.14.75a7.48,7.48,0,0,0-2.44-3.84,6.53,6.53,0,0,0-4-1.2,7.77,7.77,0,0,0-4.65,1.33,7,7,0,0,0-2.63,3.58,14.6,14.6,0,0,0-.76,4.64,14.76,14.76,0,0,0,.9,5.38,6.71,6.71,0,0,0,2.79,3.43,7.8,7.8,0,0,0,4.1,1.14,6.89,6.89,0,0,0,4.55-1.55A7.94,7.94,0,0,0,92.22,41.53Z"/><path class="cls-5" d="M98.94,50V32.51h2.67v2.65a7.24,7.24,0,0,1,1.88-2.45,3.28,3.28,0,0,1,1.91-.6,5.76,5.76,0,0,1,3,1l-1,2.75a4.21,4.21,0,0,0-2.17-.64,2.83,2.83,0,0,0-1.75.58,3.2,3.2,0,0,0-1.1,1.62,11.57,11.57,0,0,0-.5,3.46V50Z"/><path class="cls-5" d="M122.18,44.37l3.06.38a7.51,7.51,0,0,1-2.68,4.16,8.08,8.08,0,0,1-5,1.48A8,8,0,0,1,111.46,48a9.25,9.25,0,0,1-2.24-6.63,9.65,9.65,0,0,1,2.27-6.85,7.71,7.71,0,0,1,5.9-2.44,7.51,7.51,0,0,1,5.73,2.39,9.49,9.49,0,0,1,2.22,6.72c0,.18,0,.44,0,.79h-13a6.7,6.7,0,0,0,1.63,4.41A4.84,4.84,0,0,0,117.57,48a4.55,4.55,0,0,0,2.78-.86A5.67,5.67,0,0,0,122.18,44.37Zm-9.74-4.8h9.77a5.89,5.89,0,0,0-1.12-3.31,4.54,4.54,0,0,0-3.67-1.71A4.74,4.74,0,0,0,114,35.92,5.45,5.45,0,0,0,112.44,39.57Z"/><path class="cls-5" d="M140.38,47.84a11.37,11.37,0,0,1-3.17,2,9.29,9.29,0,0,1-3.27.57,6.4,6.4,0,0,1-4.43-1.4,4.63,4.63,0,0,1-1.55-3.6,4.79,4.79,0,0,1,.58-2.35,4.69,4.69,0,0,1,1.54-1.7,7.16,7.16,0,0,1,2.13-1,21.54,21.54,0,0,1,2.63-.44,27.8,27.8,0,0,0,5.29-1c0-.41,0-.67,0-.78a3.29,3.29,0,0,0-.84-2.55,5,5,0,0,0-3.38-1,5.25,5.25,0,0,0-3.09.73,4.5,4.5,0,0,0-1.47,2.59l-2.9-.39a7.25,7.25,0,0,1,1.3-3,5.7,5.7,0,0,1,2.62-1.76,11.69,11.69,0,0,1,4-.62,10.53,10.53,0,0,1,3.64.53A4.75,4.75,0,0,1,142.06,34a4.67,4.67,0,0,1,.92,2,16.61,16.61,0,0,1,.15,2.74v4a41.11,41.11,0,0,0,.19,5.23,6.3,6.3,0,0,0,.75,2.1H141A6.35,6.35,0,0,1,140.38,47.84Zm-.25-6.62a21.91,21.91,0,0,1-4.84,1.12,11.55,11.55,0,0,0-2.59.59,2.6,2.6,0,0,0-1.17,1,2.55,2.55,0,0,0-.41,1.4,2.52,2.52,0,0,0,.9,2,3.85,3.85,0,0,0,2.63.79,6.09,6.09,0,0,0,3-.75,4.56,4.56,0,0,0,2-2,7.13,7.13,0,0,0,.48-3Z"/><path class="cls-5" d="M154.2,47.35l.42,2.62a11.34,11.34,0,0,1-2.24.26,5.07,5.07,0,0,1-2.5-.51,2.88,2.88,0,0,1-1.25-1.34,10.7,10.7,0,0,1-.36-3.5V34.81h-2.18v-2.3h2.18V28.18l2.94-1.78v6.11h3v2.3h-3V45a5.23,5.23,0,0,0,.16,1.63,1.3,1.3,0,0,0,.51.58,2,2,0,0,0,1,.21A10.88,10.88,0,0,0,154.2,47.35Z"/><path class="cls-5" d="M169.07,44.37l3.06.38a7.51,7.51,0,0,1-2.68,4.16,8.08,8.08,0,0,1-5,1.48A8,8,0,0,1,158.35,48a9.25,9.25,0,0,1-2.24-6.63,9.65,9.65,0,0,1,2.27-6.85,7.71,7.71,0,0,1,5.9-2.44A7.51,7.51,0,0,1,170,34.5a9.49,9.49,0,0,1,2.22,6.72c0,.18,0,.44,0,.79h-13a6.7,6.7,0,0,0,1.63,4.41A4.84,4.84,0,0,0,164.46,48a4.55,4.55,0,0,0,2.78-.86A5.67,5.67,0,0,0,169.07,44.37Zm-9.74-4.8h9.77A5.89,5.89,0,0,0,168,36.26a4.54,4.54,0,0,0-3.67-1.71,4.74,4.74,0,0,0-3.44,1.37A5.45,5.45,0,0,0,159.33,39.57Z"/><path class="cls-5" d="M202.83,41.53l3.2.81a10.74,10.74,0,0,1-3.62,6A10,10,0,0,1,196,50.41a11.47,11.47,0,0,1-6.35-1.59,9.91,9.91,0,0,1-3.72-4.6,16.45,16.45,0,0,1-1.28-6.47,14.22,14.22,0,0,1,1.44-6.58,9.84,9.84,0,0,1,4.1-4.27,12,12,0,0,1,5.86-1.46,9.91,9.91,0,0,1,6.09,1.85,9.53,9.53,0,0,1,3.44,5.18l-3.14.75A7.42,7.42,0,0,0,200,29.38a6.49,6.49,0,0,0-4-1.2,7.81,7.81,0,0,0-4.65,1.33,7,7,0,0,0-2.63,3.58,14.59,14.59,0,0,0-.75,4.64,14.76,14.76,0,0,0,.89,5.38,6.71,6.71,0,0,0,2.79,3.43,7.84,7.84,0,0,0,4.11,1.14,6.89,6.89,0,0,0,4.54-1.55A7.94,7.94,0,0,0,202.83,41.53Z"/><path class="cls-5" d="M208.48,41.25c0-3.24.9-5.63,2.7-7.19a8.14,8.14,0,0,1,5.5-2,7.84,7.84,0,0,1,5.9,2.37A9,9,0,0,1,224.87,41a11.64,11.64,0,0,1-1,5.31,7.17,7.17,0,0,1-3,3,8.53,8.53,0,0,1-4.23,1.07A7.83,7.83,0,0,1,210.75,48C209.23,46.47,208.48,44.21,208.48,41.25Zm3.05,0a7.48,7.48,0,0,0,1.46,5,4.88,4.88,0,0,0,7.37,0,7.68,7.68,0,0,0,1.46-5.13,7.22,7.22,0,0,0-1.47-4.91,4.9,4.9,0,0,0-7.36,0A7.45,7.45,0,0,0,211.53,41.25Z"/><path class="cls-5" d="M228.34,50V32.51H231V35a6.3,6.3,0,0,1,5.57-2.88,7.25,7.25,0,0,1,2.9.57,4.6,4.6,0,0,1,2,1.49,5.69,5.69,0,0,1,.92,2.19,16.8,16.8,0,0,1,.17,2.88V50h-3V39.36a8,8,0,0,0-.34-2.71A2.8,2.8,0,0,0,238,35.22a3.89,3.89,0,0,0-2.07-.54,4.82,4.82,0,0,0-3.27,1.2c-.91.81-1.37,2.33-1.37,4.57V50Z"/><path class="cls-5" d="M253.58,47.35,254,50a11.34,11.34,0,0,1-2.24.26,5.07,5.07,0,0,1-2.5-.51A2.88,2.88,0,0,1,248,48.38a10.7,10.7,0,0,1-.36-3.5V34.81h-2.18v-2.3h2.18V28.18l2.94-1.78v6.11h3v2.3h-3V45a5.23,5.23,0,0,0,.16,1.63,1.19,1.19,0,0,0,.51.58,2,2,0,0,0,1,.21A10.88,10.88,0,0,0,253.58,47.35Z"/><path class="cls-5" d="M267.89,47.84a11.37,11.37,0,0,1-3.17,2,9.29,9.29,0,0,1-3.27.57A6.4,6.4,0,0,1,257,49a4.66,4.66,0,0,1-1.55-3.6,4.79,4.79,0,0,1,.58-2.35,4.69,4.69,0,0,1,1.54-1.7,7.16,7.16,0,0,1,2.13-1,21.54,21.54,0,0,1,2.63-.44,27.8,27.8,0,0,0,5.29-1c0-.41,0-.67,0-.78a3.29,3.29,0,0,0-.84-2.55,5,5,0,0,0-3.38-1,5.25,5.25,0,0,0-3.09.73,4.5,4.5,0,0,0-1.47,2.59L256,37.5a7.25,7.25,0,0,1,1.3-3,5.7,5.7,0,0,1,2.62-1.76,11.69,11.69,0,0,1,4-.62,10.53,10.53,0,0,1,3.64.53A4.75,4.75,0,0,1,269.57,34a4.67,4.67,0,0,1,.92,2,16.61,16.61,0,0,1,.15,2.74v4a41.11,41.11,0,0,0,.19,5.23,6.3,6.3,0,0,0,.75,2.1h-3.1A6.35,6.35,0,0,1,267.89,47.84Zm-.25-6.62a21.91,21.91,0,0,1-4.84,1.12,11.55,11.55,0,0,0-2.59.59,2.6,2.6,0,0,0-1.17,1,2.55,2.55,0,0,0-.41,1.4,2.52,2.52,0,0,0,.9,2,3.85,3.85,0,0,0,2.63.79,6.09,6.09,0,0,0,3-.75,4.56,4.56,0,0,0,2-2,7.13,7.13,0,0,0,.48-3Z"/><path class="cls-5" d="M286.65,43.59l2.91.38a7.58,7.58,0,0,1-2.44,4.72,7.13,7.13,0,0,1-4.84,1.7,7.51,7.51,0,0,1-5.77-2.34c-1.46-1.57-2.18-3.81-2.18-6.73a12.13,12.13,0,0,1,.94-5,6.54,6.54,0,0,1,2.85-3.19,8.57,8.57,0,0,1,4.18-1.06A7.26,7.26,0,0,1,287,33.55a6.6,6.6,0,0,1,2.32,4.1l-2.88.44a4.75,4.75,0,0,0-1.46-2.65,3.79,3.79,0,0,0-2.53-.89,4.62,4.62,0,0,0-3.64,1.61q-1.39,1.61-1.4,5.08c0,2.35.45,4,1.35,5.12a4.44,4.44,0,0,0,3.53,1.6,4.16,4.16,0,0,0,2.91-1.07A5.36,5.36,0,0,0,286.65,43.59Z"/><path class="cls-5" d="M298.57,47.35,299,50a11.34,11.34,0,0,1-2.24.26,5,5,0,0,1-2.5-.51A2.9,2.9,0,0,1,293,48.38a10.7,10.7,0,0,1-.36-3.5V34.81h-2.17v-2.3h2.17V28.18l2.95-1.78v6.11h3v2.3h-3V45a4.93,4.93,0,0,0,.16,1.63,1.19,1.19,0,0,0,.51.58,2,2,0,0,0,1,.21A10.74,10.74,0,0,0,298.57,47.35Z"/></svg>