<?xml version="1.0" encoding="utf-8"?>
<!-- Generator: Adobe Illustrator 22.1.0, SVG Export Plug-In . SVG Version: 6.00 Build 0)  -->
<svg version="1.1" id="Livello_1" xmlns="http://www.w3.org/2000/svg" xmlns:xlink="http://www.w3.org/1999/xlink" x="0px" y="0px"
	 viewBox="0 0 50 50" style="enable-background:new 0 0 50 50;" xml:space="preserve">
<style type="text/css">
	.st0{fill:#86A9FF;}
	.st1{fill:#578CFF;}
	.st2{fill:#0057CC;}
</style>
<path class="st0" d="M20.3,24.4c-8.2,0-14.7,6.6-14.7,14.7v6.2c0,1.5,1.2,2.7,2.7,2.7h7.1l7.1-23.6H20.3z"/>
<path class="st1" d="M44.5,34.1c0-5.4-4.4-9.7-9.7-9.7h-7.1V48h7.1c5.4,0,9.7-4.4,9.7-9.7"/>
<path class="st2" d="M12.6,34.1c0-5.4,4.4-9.7,9.7-9.7h5.3c5.4,0,9.7,4.4,9.7,9.7v4.1c0,5.4-4.4,9.7-9.7,9.7H15.3
	c-1.5,0-2.7-1.2-2.7-2.7V34.1z"/>
<circle class="st2" cx="25" cy="11.1" r="9.1"/>
</svg>
