<?xml version="1.0" encoding="utf-8"?>
<!-- Generator: Adobe Illustrator 22.1.0, SVG Export Plug-In . SVG Version: 6.00 Build 0)  -->
<svg version="1.1" id="Livello_1" xmlns="http://www.w3.org/2000/svg" xmlns:xlink="http://www.w3.org/1999/xlink" x="0px" y="0px"
	 viewBox="0 0 36 36" style="enable-background:new 0 0 36 36;" xml:space="preserve">
<style type="text/css">
	.st0{fill:#34A853;}
	.st1{fill:#4285F4;}
	.st2{fill:#FBBC05;}
	.st3{fill:#EA4335;}
	.st4{fill:#b3adad;}
</style>
<g>
	<g>
		<path class="st0" d="M14.5,14.8l12.1,12.1l3.5-3.5l-12-12L14.5,14.8z"/>
		<path class="st1" d="M9.4,18L18,9.4V2.5L5.9,14.6L9.4,18z"/>
		<path class="st2" d="M5.9,23.4l3.5,3.5l8.6-8.6v-6.9L5.9,23.4z"/>
		<path class="st3" d="M18,9.4l8.6,8.6l3.5-3.5L18,2.5V9.4z"/>
	</g>
	<g>
		<path class="st4" d="M15.4,29.9h-1.5v4.2h-1v-4.2h-1.5v-0.8h4.1V29.9z"/>
		<path class="st4" d="M20,31.7c0,0.5-0.1,0.9-0.3,1.3s-0.4,0.7-0.7,0.9c-0.3,0.2-0.7,0.3-1.1,0.3c-0.4,0-0.8-0.1-1.1-0.3
			S16.2,33.4,16,33s-0.3-0.8-0.3-1.3v-0.2c0-0.5,0.1-0.9,0.3-1.3c0.2-0.4,0.4-0.7,0.8-0.9c0.3-0.2,0.7-0.3,1.1-0.3s0.8,0.1,1.1,0.3
			c0.3,0.2,0.6,0.5,0.8,0.9c0.2,0.4,0.3,0.8,0.3,1.3V31.7z M18.9,31.5c0-0.5-0.1-0.9-0.3-1.2c-0.2-0.3-0.5-0.4-0.8-0.4
			c-0.3,0-0.6,0.1-0.8,0.4c-0.2,0.3-0.3,0.7-0.3,1.2v0.2c0,0.5,0.1,0.9,0.3,1.2c0.2,0.3,0.5,0.4,0.8,0.4c0.3,0,0.6-0.1,0.8-0.4
			s0.3-0.7,0.3-1.2V31.5z"/>
		<path class="st4" d="M21.8,32.3v1.8h-1v-5h2c0.4,0,0.7,0.1,1,0.2c0.3,0.1,0.5,0.3,0.7,0.6s0.2,0.5,0.2,0.9c0,0.5-0.2,0.9-0.5,1.2
			c-0.3,0.3-0.8,0.4-1.4,0.4H21.8z M21.8,31.5h0.9c0.3,0,0.5-0.1,0.6-0.2c0.1-0.1,0.2-0.3,0.2-0.5c0-0.2-0.1-0.4-0.2-0.6
			c-0.1-0.2-0.3-0.2-0.6-0.2h-0.9V31.5z"/>
	</g>
</g>
</svg>
