<?xml version="1.0" standalone="no"?>
<!DOCTYPE svg PUBLIC "-//W3C//DTD SVG 20010904//EN"
 "http://www.w3.org/TR/2001/REC-SVG-20010904/DTD/svg10.dtd">
<svg version="1.0" xmlns="http://www.w3.org/2000/svg"
 width="300.000000pt" height="300.000000pt" viewBox="0 0 300.000000 300.000000"
 preserveAspectRatio="xMidYMid meet">
<metadata>
Created by potrace 1.14, written by Peter Selinger 2001-2017
</metadata>
<g transform="translate(0.000000,300.000000) scale(0.100000,-0.100000)"
fill="#000000" stroke="none">
<path d="M1389 2926 c-2 -2 -26 -7 -53 -10 -201 -27 -397 -99 -571 -209 -44
-28 -82 -54 -85 -57 -3 -3 -25 -21 -50 -40 -53 -42 -151 -139 -200 -199 -19
-24 -39 -48 -45 -54 -54 -63 -171 -288 -209 -401 -51 -154 -69 -268 -70 -441
-1 -88 2 -183 6 -210 11 -73 58 -255 74 -287 8 -15 14 -30 15 -33 0 -3 9 -26
20 -52 128 -306 397 -586 692 -723 89 -41 167 -71 167 -64 0 4 6 2 13 -3 11
-9 36 -17 87 -28 8 -2 35 -8 60 -14 96 -21 151 -26 310 -25 128 0 191 5 278
23 220 43 427 136 593 268 63 49 187 188 241 267 72 109 109 181 148 289 69
194 94 347 93 557 -1 168 -17 277 -45 307 l-21 23 -662 0 c-652 0 -662 0 -683
-20 -22 -20 -22 -25 -22 -310 l0 -290 25 -16 c21 -14 67 -16 360 -16 184 0
335 -4 335 -8 0 -5 -4 -12 -10 -15 -5 -3 -10 -14 -10 -23 0 -23 -73 -133 -119
-180 -171 -172 -489 -244 -736 -165 -61 19 -172 74 -202 99 -12 11 -37 30 -54
44 -18 14 -43 36 -55 50 -12 14 -38 43 -58 65 -20 22 -56 81 -80 130 -39 79
-53 116 -73 200 -12 51 -11 225 2 290 77 387 437 659 815 614 151 -19 277 -71
376 -159 19 -16 40 -30 47 -31 7 0 20 -2 30 -4 12 -2 84 62 227 206 245 243
244 242 163 317 -147 133 -429 277 -598 305 -16 3 -41 8 -55 11 -14 3 -38 9
-55 12 -32 7 -350 15 -356 10z"/>
</g>
</svg>
